<?xml version="1.0" encoding="UTF-8" standalone="no"?>
<svg
   xmlns:dc="http://purl.org/dc/elements/1.1/"
   xmlns:cc="http://creativecommons.org/ns#"
   xmlns:rdf="http://www.w3.org/1999/02/22-rdf-syntax-ns#"
   xmlns:svg="http://www.w3.org/2000/svg"
   xmlns="http://www.w3.org/2000/svg"
   xmlns:sodipodi="http://sodipodi.sourceforge.net/DTD/sodipodi-0.dtd"
   xmlns:inkscape="http://www.inkscape.org/namespaces/inkscape"
   width="69mm"
   height="15mm"
   viewBox="0 0 69 15"
   version="1.1"
   id="svg127"
   sodipodi:docname="Azure Reaper.svg"
   inkscape:version="1.0.2 (e86c870879, 2021-01-15, custom)">
  <defs
     id="defs121">
    <filter
       y="-0.25"
       height="1.5"
       inkscape:menu-tooltip="Darkens the edge with an inner blur and adds a flexible glow"
       inkscape:menu="Shadows and Glows"
       inkscape:label="Dark and Glow"
       style="color-interpolation-filters:sRGB"
       id="filter171">
      <feGaussianBlur
         stdDeviation="5"
         result="result6"
         id="feGaussianBlur161" />
      <feComposite
         result="result8"
         in="SourceGraphic"
         operator="atop"
         in2="result6"
         id="feComposite163" />
      <feComposite
         result="result9"
         operator="over"
         in2="SourceAlpha"
         in="result8"
         id="feComposite165" />
      <feColorMatrix
         values="1 0 0 0 0 0 1 0 0 0 0 0 1 0 0 0 0 0 1 0 "
         result="result10"
         id="feColorMatrix167" />
      <feBlend
         in="result10"
         mode="normal"
         in2="result6"
         id="feBlend169" />
    </filter>
  </defs>
  <sodipodi:namedview
     id="base"
     pagecolor="#ffffff"
     bordercolor="#666666"
     borderopacity="1.0"
     inkscape:pageopacity="0.0"
     inkscape:pageshadow="2"
     inkscape:zoom="2.48"
     inkscape:cx="263.7468"
     inkscape:cy="177.22719"
     inkscape:document-units="mm"
     inkscape:current-layer="layer1"
     inkscape:document-rotation="0"
     showgrid="false"
     inkscape:window-width="2576"
     inkscape:window-height="1569"
     inkscape:window-x="4068"
     inkscape:window-y="228"
     inkscape:window-maximized="0"
     showguides="true"
     inkscape:guide-bbox="true">
    <sodipodi:guide
       position="20.594841,199.68372"
       orientation="1,0"
       id="guide854" />
    <sodipodi:guide
       position="88.867116,187.00997"
       orientation="1,0"
       id="guide856" />
    <sodipodi:guide
       position="61.105572,187.68892"
       orientation="0,-1"
       id="guide858" />
    <sodipodi:guide
       position="57.937135,173.28008"
       orientation="0,-1"
       id="guide860" />
  </sodipodi:namedview>
  <metadata
     id="metadata124">
    <rdf:RDF>
      <cc:Work
         rdf:about="">
        <dc:format>image/svg+xml</dc:format>
        <dc:type
           rdf:resource="http://purl.org/dc/dcmitype/StillImage" />
        <dc:title></dc:title>
      </cc:Work>
    </rdf:RDF>
  </metadata>
  <g
     inkscape:label="Layer 1"
     inkscape:groupmode="layer"
     id="layer1">
    <g
       id="g868"
       transform="translate(-20.147569,-109.14726)">
      <circle
         style="fill:none;stroke:#ffffff;stroke-width:0.720916;stroke-miterlimit:4;stroke-dasharray:none;stroke-opacity:1"
         id="path21"
         cx="27.642784"
         cy="116.55045"
         r="6.8067298" />
      <path
         style="fill:#ffffff;fill-opacity:1;stroke-width:0.0140798"
         d="m 28.050783,121.03668 c -0.07007,-0.0102 -0.304498,-0.0318 -0.520952,-0.0479 -0.391839,-0.0291 -0.908846,-0.0944 -1.069036,-0.13503 -0.260662,-0.066 -0.336233,-0.23472 -0.120025,-0.26793 0.03485,-0.005 0.0864,-0.0213 0.114562,-0.0354 0.02816,-0.0141 0.105285,-0.0392 0.171384,-0.0558 0.06721,-0.0169 0.133937,-0.043 0.151393,-0.0592 0.11764,-0.1096 0.373065,-1.01946 0.498931,-1.77726 0.0283,-0.17037 0.09161,-0.50617 0.140705,-0.74623 0.09434,-0.46133 0.169688,-0.88974 0.217914,-1.23902 0.01604,-0.11616 0.04556,-0.32061 0.0656,-0.45433 0.0275,-0.18351 0.03251,-0.24786 0.02045,-0.2624 -0.0088,-0.0106 -0.08075,-0.0367 -0.159907,-0.058 -0.171099,-0.046 -0.272493,-0.0966 -0.299905,-0.14965 -0.03024,-0.0585 -0.02444,-0.16849 0.01431,-0.27143 0.04445,-0.11809 0.188862,-0.40108 0.263462,-0.51627 0.06251,-0.0965 0.265414,-0.50692 0.2654,-0.53681 -1.7e-5,-0.0334 -0.120959,-0.1712 -0.565616,-0.64452 -0.485851,-0.51716 -0.72801,-0.75581 -0.780226,-0.76891 -0.08466,-0.0212 -0.184431,0.0458 -0.421182,0.28287 -0.607278,0.60818 -1.143601,1.41795 -1.675398,2.52958 -0.206859,0.43241 -0.316877,0.69562 -0.561213,1.34265 l -0.04785,0.12672 -0.01077,-0.18304 c -0.07344,-1.24862 0.38534,-2.38581 1.684175,-4.17465 0.290685,-0.40035 0.406916,-0.56898 0.406916,-0.59036 0,-0.008 0.06157,-0.0785 0.136817,-0.1569 l 0.136817,-0.14255 0.03566,0.0408 c 0.485981,0.55553 1.309017,1.46403 1.576144,1.7398 0.09725,0.1004 0.180104,0.17504 0.186829,0.16831 0.0066,-0.007 0.02832,-0.0782 0.04817,-0.15894 0.04991,-0.20313 0.112737,-0.3286 0.323805,-0.6467 0.100199,-0.151 0.214416,-0.32524 0.253816,-0.38719 0.105545,-0.16595 0.175992,-0.23858 0.282112,-0.29082 0.08562,-0.0421 0.102196,-0.0454 0.228055,-0.0441 0.158527,0.002 0.301081,0.0316 0.401884,0.0847 0.0757,0.0399 0.599746,0.55025 0.599746,0.58411 0,0.0409 -0.289026,0.59506 -0.394355,0.75607 l -0.11432,0.17476 0.08522,0.3462 c 0.111189,0.4517 0.125408,0.54727 0.142639,0.95866 0.0079,0.18972 0.01798,0.42834 0.02229,0.53025 l 0.0078,0.1853 0.542752,0.58909 c 0.647183,0.70244 1.214471,1.3298 1.214471,1.34308 0,0.005 -0.04783,0.0491 -0.106295,0.0975 -0.1013,0.0838 -0.107535,0.0868 -0.132665,0.0641 -0.0145,-0.0131 -0.351577,-0.37499 -0.749052,-0.80415 l -0.722682,-0.78029 -0.0097,0.0881 c -0.01198,0.10839 0.0063,0.30961 0.04509,0.49636 0.116096,0.55895 0.107932,1.03068 -0.043,2.48426 -0.107341,1.0338 -0.108743,0.96666 0.02171,1.03971 0.157484,0.0882 0.187347,0.14282 0.09835,0.18001 -0.115643,0.0483 -0.629668,0.1104 -1.272927,0.15373 -0.366116,0.0247 -0.454315,0.0246 -0.628321,-8.4e-4 z"
         id="path852" />
      <text
         xml:space="preserve"
         style="font-style:normal;font-weight:normal;font-size:10.5833px;line-height:1.25;font-family:sans-serif;fill:#ffffff;fill-opacity:1;stroke:none;stroke-width:0.264583"
         x="37.040539"
         y="120.17429"
         id="text850"><tspan
           sodipodi:role="line"
           id="tspan848"
           x="37.040539"
           y="120.17429"
           style="fill:#ffffff;stroke-width:0.264583">AZReaper</tspan></text>
    </g>
  </g>
</svg>
